<svg width="54" height="54" viewBox="0 0 54 54" fill="none" xmlns="http://www.w3.org/2000/svg">
<g clip-path="url(#clip0_416_60)">
<path d="M33.5106 1.8474C33.5106 1.40742 33.3358 0.985471 33.0247 0.674363C32.7136 0.363255 32.2916 0.188477 31.8517 0.188477L21.8981 0.188477C21.4582 0.188477 21.0362 0.363255 20.7251 0.674363C20.414 0.985471 20.2392 1.40742 20.2392 1.8474C20.2392 2.28737 20.0644 2.70932 19.7533 3.02043C19.4422 3.33154 19.0203 3.50632 18.5803 3.50632C18.1403 3.50632 17.7184 3.6811 17.4073 3.9922C17.0962 4.30331 16.9214 4.72527 16.9214 5.16524V6.82416C16.9214 7.26413 17.0962 7.68608 17.4073 7.99719C17.7184 8.3083 18.1403 8.48308 18.5803 8.48308H35.1695C35.6095 8.48308 36.0314 8.3083 36.3425 7.99719C36.6537 7.68608 36.8284 7.26413 36.8284 6.82416V5.16524C36.8284 4.72527 36.6537 4.30331 36.3425 3.9922C36.0314 3.6811 35.6095 3.50632 35.1695 3.50632C34.7295 3.50632 34.3076 3.33154 33.9965 3.02043C33.6854 2.70932 33.5106 2.28737 33.5106 1.8474Z" fill="#9730FF"/>
<path d="M13.8855 3.50635H11.9445C10.6246 3.50635 9.35876 4.03068 8.42543 4.96401C7.49211 5.89733 6.96777 7.16319 6.96777 8.48311V48.2972C6.96777 49.6171 7.49211 50.883 8.42543 51.8163C9.35876 52.7496 10.6246 53.274 11.9445 53.274H41.8051C43.125 53.274 44.3909 52.7496 45.3242 51.8163C46.2575 50.883 46.7819 49.6171 46.7819 48.2972V8.48311C46.7819 7.16319 46.2575 5.89733 45.3242 4.96401C44.3909 4.03068 43.125 3.50635 41.8051 3.50635H39.8642C40.0467 4.02393 40.1462 4.58465 40.1462 5.16527V6.82419C40.1462 8.14411 39.6219 9.40997 38.6885 10.3433C37.7552 11.2766 36.4893 11.801 35.1694 11.801H18.5802C17.2603 11.801 15.9944 11.2766 15.0611 10.3433C14.1278 9.40997 13.6035 8.14411 13.6035 6.82419V5.16527C13.6035 4.58465 13.703 4.02393 13.8855 3.50635ZM33.5105 23.4134C33.5105 22.5334 33.8601 21.6895 34.4823 21.0673C35.1045 20.4451 35.9484 20.0956 36.8283 20.0956C37.7083 20.0956 38.5522 20.4451 39.1744 21.0673C39.7966 21.6895 40.1462 22.5334 40.1462 23.4134V40.0026C40.1462 40.8825 39.7966 41.7265 39.1744 42.3487C38.5522 42.9709 37.7083 43.3204 36.8283 43.3204C35.9484 43.3204 35.1045 42.9709 34.4823 42.3487C33.8601 41.7265 33.5105 40.8825 33.5105 40.0026V23.4134ZM13.6035 36.6848C13.6035 35.8048 13.953 34.9609 14.5752 34.3387C15.1974 33.7165 16.0414 33.3669 16.9213 33.3669C17.8012 33.3669 18.6451 33.7165 19.2674 34.3387C19.8896 34.9609 20.2391 35.8048 20.2391 36.6848V40.0026C20.2391 40.8825 19.8896 41.7265 19.2674 42.3487C18.6451 42.9709 17.8012 43.3204 16.9213 43.3204C16.0414 43.3204 15.1974 42.9709 14.5752 42.3487C13.953 41.7265 13.6035 40.8825 13.6035 40.0026V36.6848ZM26.8748 26.7312C27.7548 26.7312 28.5987 27.0808 29.2209 27.703C29.8431 28.3252 30.1927 29.1691 30.1927 30.0491V40.0026C30.1927 40.8825 29.8431 41.7265 29.2209 42.3487C28.5987 42.9709 27.7548 43.3204 26.8748 43.3204C25.9949 43.3204 25.151 42.9709 24.5288 42.3487C23.9065 41.7265 23.557 40.8825 23.557 40.0026V30.0491C23.557 29.1691 23.9065 28.3252 24.5288 27.703C25.151 27.0808 25.9949 26.7312 26.8748 26.7312Z" fill="#9730FF"/>
</g>
<defs>
<clipPath id="clip0_416_60">
<rect width="53.0855" height="53.0855" fill="white" transform="translate(0.332031 0.188477)"/>
</clipPath>
</defs>
</svg>
