<svg width="31" height="28" viewBox="0 0 31 28" fill="none" xmlns="http://www.w3.org/2000/svg">
<path d="M10.4946 1.33354C10.4896 1.26352 10.647 1.17849 10.9667 1.07845C11.4164 0.935904 11.6787 0.928401 15.1184 0.920898C18.5956 0.920898 18.8204 0.928401 19.3 1.07095C19.5773 1.15348 19.8021 1.26602 19.8021 1.31854C19.8021 1.36355 19.5848 1.7837 19.3225 2.23386C19.0602 2.69152 18.0935 4.3571 17.1792 5.94765C16.265 7.53821 15.4331 8.98621 15.3282 9.17378C15.1559 9.48139 15.1334 9.49639 15.0584 9.36135C15.021 9.27882 14.6613 8.6561 14.2716 7.97336C13.8819 7.29062 13.3049 6.30028 12.9976 5.76009C12.6903 5.2199 12.2482 4.46214 12.0234 4.072C11.7986 3.68186 11.3639 2.9316 11.0642 2.40642C10.7569 1.87373 10.5021 1.39356 10.4946 1.33354Z" fill="#00832D"/>
<path d="M0.385314 20.1275C0.317868 19.9399 0.235435 19.6323 0.205459 19.4373L0.145508 19.0771H9.61036L9.45298 19.3547C9.36306 19.5123 8.83848 20.4351 8.27643 21.403C7.71439 22.3708 6.8376 23.8938 6.32801 24.7791C5.81842 25.6644 5.30134 26.5723 5.18144 26.7823C5.06153 26.9999 4.91915 27.18 4.87419 27.18C4.82173 27.1875 4.62689 27.0524 4.43954 26.8949C4.25219 26.7298 4.01238 26.4672 3.90747 26.3097C3.80255 26.1521 3.57773 25.7845 3.41287 25.4919C3.248 25.1993 2.94075 24.6816 2.73841 24.329C2.53608 23.9764 1.95155 22.9635 1.44196 22.0782C0.932372 21.1929 0.452759 20.3151 0.385314 20.1275Z" fill="#0066DA"/>
<path d="M21.2185 20.015C20.9787 19.6023 20.7839 19.2197 20.7764 19.1747V19.1672C20.7764 19.0997 21.7506 19.0771 30.0689 19.0771V19.3172C30.0689 19.4523 30.0164 19.7524 29.949 19.9775C29.8815 20.2025 29.5068 20.9453 29.1096 21.628C28.7125 22.3108 27.9481 23.6462 27.4085 24.5916C26.6666 25.8745 26.3069 26.4297 25.9922 26.7448C25.7598 26.9849 25.52 27.1725 25.4526 27.1575C25.3851 27.15 25.0854 26.7223 24.7931 26.2046C24.4934 25.687 23.6615 24.254 22.9496 23.016C22.2377 21.7781 21.4583 20.4276 21.2185 20.015Z" fill="#EA4335"/>
<path d="M17.1793 5.94777C18.071 4.40223 19.0378 2.72164 19.3225 2.21896C19.6073 1.71629 19.8621 1.30365 19.8921 1.29614C19.9295 1.29614 20.1768 1.52122 20.4541 1.80632C20.7988 2.14394 21.0986 2.55658 21.3834 3.05926C21.6157 3.4719 21.9979 4.14714 22.2377 4.55978C22.4775 4.97243 22.9871 5.86524 23.3843 6.54798C23.7739 7.23071 24.336 8.20606 24.6357 8.72374C24.9355 9.24142 25.7074 10.5919 26.3593 11.7248C27.0113 12.8577 27.8506 14.3282 28.2328 14.9884C28.615 15.6487 29.1171 16.5265 29.3569 16.9391C29.5967 17.3517 29.8515 17.8769 29.934 18.102C30.0089 18.3271 30.0689 18.6422 30.0689 19.0774H25.4226C22.8672 19.0774 20.7539 19.0849 20.7164 19.0849C20.6864 19.0924 20.5665 18.9348 20.4466 18.7322C20.3267 18.5297 19.5474 17.1867 18.7155 15.7387C17.9142 14.3509 16.8207 12.4479 15.3078 9.81499L15.1334 9.51151L15.3433 9.13638C15.4632 8.93381 16.2875 7.49331 17.1793 5.94777Z" fill="#FFBA00"/>
<path d="M9.03335 20.0902C9.31812 19.595 9.61038 19.1448 9.67783 19.0923C9.76775 19.0248 10.9593 19.0023 20.649 19.0398L21.0012 19.64C21.196 19.9701 21.6681 20.7954 22.0653 21.4782C22.455 22.1609 23.3618 23.7289 24.0737 24.9669C25.2877 27.0826 25.3626 27.2252 25.2278 27.3152C25.1453 27.3677 24.913 27.4577 24.7107 27.5253C24.3884 27.6153 23.017 27.6303 15.006 27.6078C7.96171 27.5928 5.60862 27.5703 5.41377 27.5028C5.27139 27.4502 5.09903 27.3677 5.03158 27.3152C4.91917 27.2252 4.99411 27.0751 5.69105 25.8672C6.1257 25.1244 6.93504 23.7214 7.49709 22.7536C8.05164 21.7858 8.74858 20.5853 9.03335 20.0902Z" fill="#2684FC"/>
<path d="M9.27311 2.49656C9.408 2.27148 9.71525 1.90385 9.95506 1.69378C10.1949 1.47621 10.4197 1.29614 10.4497 1.29614C10.4796 1.29614 10.5096 1.33366 10.5096 1.37117C10.5096 1.41618 10.7644 1.88135 11.0717 2.42154C11.3789 2.96172 11.8885 3.84703 12.2107 4.39472C12.5255 4.93491 13.0126 5.79021 13.3048 6.28538C13.5896 6.78056 14.1142 7.69588 14.4664 8.31109C14.8186 8.93381 15.1109 9.46649 15.1034 9.51151C15.1034 9.55653 14.7212 10.2468 14.2566 11.0495C13.792 11.8523 13.1025 13.0527 12.7203 13.713C12.3381 14.3732 11.5663 15.7237 10.9967 16.714C10.4197 17.7044 9.88761 18.6422 9.6478 19.0773H0.167969L0.212932 18.7247C0.242908 18.5222 0.317848 18.2145 0.385293 18.027C0.452739 17.8394 0.969821 16.8941 1.53187 15.9262C2.09391 14.9584 3.10559 13.2028 3.78005 12.0249C4.4545 10.847 5.91582 8.31859 7.02493 6.39792C8.12653 4.47725 9.13822 2.72164 9.27311 2.49656Z" fill="#00AC47"/>
</svg>
