<svg width="54" height="54" viewBox="0 0 54 54" fill="none" xmlns="http://www.w3.org/2000/svg">
<circle cx="27" cy="27" r="27" fill="white"/>
<path d="M22.3492 14.4126C22.3442 14.3426 22.5016 14.2576 22.8214 14.1576C23.271 14.015 23.5333 14.0075 26.973 14C30.4502 14 30.675 14.0075 31.1546 14.1501C31.4319 14.2326 31.6567 14.3451 31.6567 14.3976C31.6567 14.4427 31.4394 14.8628 31.1771 15.313C30.9148 15.7706 29.9481 17.4362 29.0338 19.0268C28.1196 20.6173 27.2877 22.0653 27.1828 22.2529C27.0105 22.5605 26.988 22.5755 26.913 22.4404C26.8756 22.3579 26.5159 21.7352 26.1262 21.0525C25.7365 20.3697 25.1595 19.3794 24.8522 18.8392C24.545 18.299 24.1028 17.5412 23.878 17.1511C23.6532 16.761 23.2185 16.0107 22.9188 15.4855C22.6115 14.9528 22.3567 14.4727 22.3492 14.4126Z" fill="#00832D"/>
<path d="M12.2398 33.2066C12.1724 33.0191 12.0899 32.7114 12.06 32.5164L12 32.1562H21.4648L21.3075 32.4338C21.2175 32.5914 20.693 33.5142 20.1309 34.4821C19.5689 35.4499 18.6921 36.9729 18.1825 37.8582C17.6729 38.7436 17.1558 39.6514 17.0359 39.8614C16.916 40.079 16.7736 40.2591 16.7287 40.2591C16.6762 40.2666 16.4814 40.1315 16.294 39.974C16.1067 39.8089 15.8669 39.5463 15.762 39.3888C15.657 39.2312 15.4322 38.8636 15.2674 38.571C15.1025 38.2784 14.7952 37.7607 14.5929 37.4081C14.3906 37.0555 13.806 36.0426 13.2965 35.1573C12.7869 34.272 12.3073 33.3942 12.2398 33.2066Z" fill="#0066DA"/>
<path d="M33.073 33.0941C32.8332 32.6814 32.6384 32.2988 32.6309 32.2538V32.2463C32.6309 32.1788 33.6051 32.1562 41.9233 32.1562V32.3963C41.9233 32.5314 41.8709 32.8315 41.8034 33.0566C41.736 33.2816 41.3613 34.0244 40.9641 34.7071C40.5669 35.3899 39.8026 36.7253 39.263 37.6707C38.5211 38.9536 38.1614 39.5088 37.8466 39.8239C37.6143 40.064 37.3745 40.2516 37.3071 40.2366C37.2396 40.2291 36.9399 39.8014 36.6476 39.2837C36.3479 38.7661 35.516 37.3331 34.8041 36.0951C34.0922 34.8572 33.3128 33.5067 33.073 33.0941Z" fill="#EA4335"/>
<path d="M29.0339 19.0269C29.9257 17.4813 30.8924 15.8007 31.1772 15.2981C31.4619 14.7954 31.7167 14.3827 31.7467 14.3752C31.7842 14.3752 32.0315 14.6003 32.3087 14.8854C32.6535 15.223 32.9532 15.6357 33.238 16.1384C33.4703 16.551 33.8525 17.2262 34.0923 17.6389C34.3321 18.0515 34.8417 18.9443 35.2389 19.6271C35.6286 20.3098 36.1906 21.2852 36.4904 21.8028C36.7901 22.3205 37.562 23.671 38.214 24.8039C38.8659 25.9368 39.7053 27.4073 40.0875 28.0675C40.4696 28.7278 40.9717 29.6056 41.2115 30.0182C41.4513 30.4309 41.7061 30.956 41.7886 31.1811C41.8635 31.4062 41.9235 31.7213 41.9235 32.1565H37.2772C34.7218 32.1565 32.6085 32.164 32.571 32.164C32.541 32.1715 32.4211 32.0139 32.3012 31.8113C32.1813 31.6088 31.402 30.2658 30.5701 28.8178C29.7688 27.43 28.6753 25.527 27.1624 22.8941L26.988 22.5906L27.1979 22.2155C27.3178 22.0129 28.1421 20.5724 29.0339 19.0269Z" fill="#FFBA00"/>
<path d="M20.8878 33.1693C21.1726 32.6741 21.4649 32.2239 21.5323 32.1714C21.6222 32.1039 22.8138 32.0814 32.5035 32.1189L32.8557 32.7191C33.0505 33.0492 33.5226 33.8745 33.9198 34.5573C34.3095 35.24 35.2163 36.808 35.9282 38.046C37.1422 40.1617 37.2171 40.3043 37.0823 40.3943C36.9998 40.4468 36.7675 40.5368 36.5652 40.6044C36.2429 40.6944 34.8715 40.7094 26.8605 40.6869C19.8162 40.6719 17.4631 40.6494 17.2683 40.5819C17.1259 40.5293 16.9535 40.4468 16.8861 40.3943C16.7737 40.3043 16.8486 40.1542 17.5455 38.9463C17.9802 38.2035 18.7895 36.8005 19.3516 35.8327C19.9061 34.8649 20.6031 33.6644 20.8878 33.1693Z" fill="#2684FC"/>
<path d="M21.1276 15.5757C21.2625 15.3506 21.5697 14.983 21.8095 14.7729C22.0494 14.5553 22.2742 14.3752 22.3041 14.3752C22.3341 14.3752 22.3641 14.4128 22.3641 14.4503C22.3641 14.4953 22.6189 14.9604 22.9261 15.5006C23.2334 16.0408 23.743 16.9261 24.0652 17.4738C24.38 18.014 24.8671 18.8693 25.1593 19.3645C25.4441 19.8597 25.9687 20.775 26.3209 21.3902C26.6731 22.0129 26.9654 22.5456 26.9579 22.5906C26.9579 22.6356 26.5757 23.3259 26.1111 24.1286C25.6464 24.9314 24.957 26.1318 24.5748 26.7921C24.1926 27.4523 23.4207 28.8028 22.8512 29.7931C22.2742 30.7835 21.7421 31.7213 21.5023 32.1565H12.0225L12.0674 31.8038C12.0974 31.6013 12.1723 31.2936 12.2398 31.1061C12.3072 30.9185 12.8243 29.9732 13.3864 29.0054C13.9484 28.0375 14.9601 26.2819 15.6345 25.104C16.309 23.9261 17.7703 21.3977 18.8794 19.477C19.981 17.5564 20.9927 15.8007 21.1276 15.5757Z" fill="#00AC47"/>
</svg>
