<svg width="295" height="415" viewBox="0 0 295 415" fill="none" xmlns="http://www.w3.org/2000/svg">
<g filter="url(#filter0_d_313_751)">
<rect x="11" y="11" width="272.749" height="392.649" rx="18.3053" fill="white"/>
<path d="M166.794 191.201L173.072 197.287L159.639 210.62C159.104 211.151 158.483 211.574 157.776 211.889C157.07 212.204 156.328 212.361 155.551 212.359H154.675C153.848 212.359 153.154 212.08 152.593 211.524C152.032 210.967 151.753 210.28 151.755 209.46V208.591C151.755 207.818 151.901 207.081 152.193 206.379C152.485 205.678 152.899 205.063 153.434 204.533L166.794 191.201ZM175.189 195.258L168.984 189.099L171.028 187.071C171.612 186.491 172.318 186.201 173.145 186.201C173.972 186.201 174.654 186.491 175.189 187.071L177.233 189.172C177.769 189.752 178.036 190.44 178.036 191.238C178.036 192.036 177.769 192.7 177.233 193.23L175.189 195.258ZM122.554 206.562C120.948 206.562 119.572 205.994 118.428 204.858C117.283 203.722 116.711 202.357 116.713 200.765V165.985C116.713 164.391 117.286 163.026 118.43 161.89C119.575 160.754 120.95 160.187 122.554 160.188H137.665C138.444 160.188 139.187 160.333 139.893 160.623C140.6 160.913 141.22 161.324 141.754 161.855L145.915 165.985H169.276C170.882 165.985 172.257 166.553 173.402 167.689C174.547 168.826 175.118 170.19 175.116 171.782V180.26C173.607 180.26 172.123 180.441 170.663 180.804C169.203 181.168 167.937 181.88 166.867 182.94L143.214 206.562H122.554Z" fill="#9730FF"/>
<path d="M64.056 242.45C66.637 242.45 68.3211 240.656 68.3211 238.184C68.3211 235.64 66.6553 233.938 64.056 233.938H58.9122V247.172H60.7061V242.45H64.056ZM63.7448 235.548C65.4289 235.548 66.4357 236.5 66.4357 238.166C66.4357 239.795 65.4472 240.839 63.6715 240.839H60.7061V235.548H63.7448ZM75.1856 238.148C74.8378 238.075 74.5815 238.038 74.2703 238.038C73.0439 238.038 72.1469 238.66 71.7808 239.594L71.671 238.239H70.0601V247.172H71.7808V242.431C71.7808 240.711 72.7876 239.722 74.4168 239.722H75.1856V238.148ZM75.8919 242.688C75.8919 245.452 77.8689 247.392 80.5598 247.392C83.2324 247.392 85.2093 245.452 85.2093 242.688C85.2093 239.923 83.2324 237.983 80.5598 237.983C77.8689 237.983 75.8919 239.923 75.8919 242.688ZM77.6309 242.688C77.6309 240.82 78.8208 239.521 80.5598 239.521C82.2805 239.521 83.4886 240.82 83.4886 242.688C83.4886 244.555 82.2805 245.854 80.5598 245.854C78.8208 245.854 77.6309 244.555 77.6309 242.688ZM90.7019 247.392C92.1298 247.392 93.3379 246.77 93.9237 245.543L94.0701 247.172H95.6078V233.7H93.9054V239.667C93.3013 238.569 92.1481 237.965 90.7752 237.965C88.1209 237.965 86.5283 239.978 86.5283 242.724C86.5283 245.452 88.1026 247.392 90.7019 247.392ZM91.0497 245.836C89.2924 245.836 88.2673 244.518 88.2673 242.669C88.2673 240.839 89.2924 239.521 91.0497 239.521C92.8071 239.521 93.8871 240.839 93.8871 242.669C93.8871 244.536 92.8071 245.836 91.0497 245.836ZM104.277 238.221V242.944C104.277 244.866 103.417 245.873 101.843 245.873C100.525 245.873 99.701 245.14 99.701 243.218V238.221H97.9803V243.786C97.9803 245.983 99.1519 247.392 101.239 247.392C102.557 247.392 103.746 246.751 104.259 245.818L104.442 247.172H105.98V238.221H104.277ZM107.712 242.706C107.712 245.525 109.451 247.392 112.087 247.392C114.247 247.392 115.913 246.092 116.26 244.152H114.54C114.228 245.214 113.313 245.854 112.087 245.854C110.458 245.854 109.414 244.61 109.414 242.688C109.414 240.747 110.531 239.502 112.16 239.502C113.313 239.502 114.228 240.107 114.521 241.241H116.242C115.931 239.246 114.357 237.965 112.105 237.965C109.487 237.965 107.712 239.905 107.712 242.706ZM120.602 247.172V239.667H122.359V238.221H120.602V235.42H118.881V238.221H117.124V239.667H118.881V247.172H120.602ZM130.63 247.172V241.864C130.63 240.436 131.49 239.539 132.79 239.539C133.998 239.539 134.767 240.308 134.767 241.717V247.172H136.469V241.864C136.469 240.436 137.329 239.521 138.629 239.521C139.837 239.521 140.624 240.326 140.624 241.736V247.172H142.308V241.315C142.308 239.246 141.064 237.965 139.013 237.965C137.622 237.965 136.542 238.66 136.121 239.777C135.664 238.66 134.675 237.965 133.284 237.965C132.021 237.965 131.069 238.551 130.611 239.393L130.447 238.221H128.909V247.172H130.63ZM147.311 247.392C148.757 247.392 149.984 246.751 150.442 245.726L150.625 247.172H152.089V241.553C152.089 239.136 150.588 237.965 148.373 237.965C146.067 237.965 144.529 239.191 144.529 241.058H146.03C146.03 239.978 146.854 239.338 148.3 239.338C149.508 239.338 150.405 239.869 150.405 241.37V241.626L147.586 241.846C145.481 242.01 144.254 243.035 144.254 244.683C144.254 246.312 145.389 247.392 147.311 247.392ZM147.806 246.056C146.689 246.056 145.993 245.58 145.993 244.628C145.993 243.749 146.616 243.163 148.135 243.017L150.423 242.834V243.31C150.423 244.994 149.435 246.056 147.806 246.056ZM156.193 247.172V242.431C156.193 240.692 157.126 239.539 158.737 239.539C160.055 239.539 160.897 240.271 160.897 242.083V247.172H162.618V241.699C162.618 239.411 161.538 237.965 159.176 237.965C157.913 237.965 156.778 238.569 156.211 239.594L156.028 238.221H154.472V247.172H156.193ZM167.619 247.392C169.065 247.392 170.291 246.751 170.749 245.726L170.932 247.172H172.396V241.553C172.396 239.136 170.895 237.965 168.681 237.965C166.374 237.965 164.836 239.191 164.836 241.058H166.337C166.337 239.978 167.161 239.338 168.607 239.338C169.815 239.338 170.712 239.869 170.712 241.37V241.626L167.893 241.846C165.788 242.01 164.562 243.035 164.562 244.683C164.562 246.312 165.697 247.392 167.619 247.392ZM168.113 246.056C166.996 246.056 166.301 245.58 166.301 244.628C166.301 243.749 166.923 243.163 168.443 243.017L170.731 242.834V243.31C170.731 244.994 169.742 246.056 168.113 246.056ZM174.212 242.468C174.212 244.976 175.823 246.934 178.367 246.934C179.777 246.934 180.948 246.312 181.534 245.269V247.063C181.534 248.765 180.436 249.863 178.752 249.863C177.251 249.863 176.262 249.094 176.043 247.776H174.322C174.651 250.046 176.317 251.419 178.752 251.419C181.498 251.419 183.237 249.625 183.237 246.806V238.221H181.699L181.571 239.74C181.003 238.624 179.887 237.965 178.441 237.965C175.841 237.965 174.212 239.942 174.212 242.468ZM175.933 242.431C175.933 240.784 176.958 239.466 178.679 239.466C180.436 239.466 181.461 240.711 181.461 242.431C181.461 244.189 180.399 245.433 178.66 245.433C176.976 245.433 175.933 244.115 175.933 242.431ZM189.582 247.392C191.797 247.392 193.298 246.312 193.737 244.39H192.127C191.834 245.415 190.955 245.964 189.619 245.964C187.916 245.964 186.928 244.921 186.8 243.035L193.719 243.017V242.376C193.719 239.722 192.053 237.965 189.509 237.965C186.91 237.965 185.134 239.905 185.134 242.706C185.134 245.488 186.946 247.392 189.582 247.392ZM189.509 239.411C191.028 239.411 191.998 240.399 191.998 241.882H186.836C187.056 240.308 188.008 239.411 189.509 239.411ZM197.362 247.172V241.864C197.362 240.436 198.222 239.539 199.522 239.539C200.73 239.539 201.499 240.308 201.499 241.717V247.172H203.201V241.864C203.201 240.436 204.062 239.521 205.361 239.521C206.569 239.521 207.357 240.326 207.357 241.736V247.172H209.041V241.315C209.041 239.246 207.796 237.965 205.746 237.965C204.354 237.965 203.274 238.66 202.853 239.777C202.396 238.66 201.407 237.965 200.016 237.965C198.753 237.965 197.801 238.551 197.344 239.393L197.179 238.221H195.641V247.172H197.362ZM215.288 247.392C217.503 247.392 219.004 246.312 219.444 244.39H217.833C217.54 245.415 216.661 245.964 215.325 245.964C213.623 245.964 212.634 244.921 212.506 243.035L219.425 243.017V242.376C219.425 239.722 217.76 237.965 215.215 237.965C212.616 237.965 210.84 239.905 210.84 242.706C210.84 245.488 212.652 247.392 215.288 247.392ZM215.215 239.411C216.734 239.411 217.705 240.399 217.705 241.882H212.543C212.762 240.308 213.714 239.411 215.215 239.411ZM223.068 247.172V242.431C223.068 240.692 224.001 239.539 225.612 239.539C226.93 239.539 227.772 240.271 227.772 242.083V247.172H229.493V241.699C229.493 239.411 228.413 237.965 226.052 237.965C224.789 237.965 223.654 238.569 223.086 239.594L222.903 238.221H221.347V247.172H223.068ZM234.403 247.172V239.667H236.16V238.221H234.403V235.42H232.682V238.221H230.924V239.667H232.682V247.172H234.403Z" fill="black"/>
</g>
<defs>
<filter id="filter0_d_313_751" x="0.0168018" y="0.0168018" width="294.716" height="414.616" filterUnits="userSpaceOnUse" color-interpolation-filters="sRGB">
<feFlood flood-opacity="0" result="BackgroundImageFix"/>
<feColorMatrix in="SourceAlpha" type="matrix" values="0 0 0 0 0 0 0 0 0 0 0 0 0 0 0 0 0 0 127 0" result="hardAlpha"/>
<feOffset/>
<feGaussianBlur stdDeviation="5.4916"/>
<feComposite in2="hardAlpha" operator="out"/>
<feColorMatrix type="matrix" values="0 0 0 0 0 0 0 0 0 0 0 0 0 0 0 0 0 0 0.05 0"/>
<feBlend mode="normal" in2="BackgroundImageFix" result="effect1_dropShadow_313_751"/>
<feBlend mode="normal" in="SourceGraphic" in2="effect1_dropShadow_313_751" result="shape"/>
</filter>
</defs>
</svg>
