<svg width="63" height="53" viewBox="0 0 63 53" fill="none" xmlns="http://www.w3.org/2000/svg">
<path d="M50.7937 31.2008L57.072 37.2873L43.6394 50.6197C43.104 51.151 42.483 51.5742 41.7763 51.8891C41.0697 52.2041 40.328 52.3606 39.5512 52.3587H38.6752C37.8478 52.3587 37.1538 52.0804 36.5931 51.5239C36.0324 50.9675 35.7531 50.2796 35.755 49.4603V48.5908C35.755 47.8179 35.901 47.0808 36.193 46.3794C36.4851 45.678 36.8987 45.0626 37.4341 44.5331L50.7937 31.2008ZM59.1891 35.2584L52.9838 29.0995L55.0279 27.0706C55.6119 26.4909 56.3176 26.2011 57.145 26.2011C57.9724 26.2011 58.6538 26.4909 59.1891 27.0706L61.2332 29.1719C61.7686 29.7516 62.0362 30.4404 62.0362 31.2384C62.0362 32.0364 61.7686 32.7002 61.2332 33.2296L59.1891 35.2584ZM6.55366 46.562C4.94758 46.562 3.5722 45.9939 2.4275 44.8577C1.28281 43.7216 0.711437 42.3574 0.713384 40.7653V5.98517C0.713384 4.39108 1.28573 3.02596 2.43042 1.88981C3.57512 0.753658 4.94953 0.186549 6.55366 0.188481H21.6654C22.4441 0.188481 23.1868 0.333399 23.8934 0.623233C24.6001 0.913068 25.2201 1.32367 25.7536 1.85503L29.9147 5.98517H53.2758C54.8819 5.98517 56.2573 6.55324 57.402 7.68939C58.5467 8.82554 59.1181 10.1897 59.1161 11.7819V20.2595C57.6074 20.2595 56.123 20.4411 54.6629 20.8044C53.2028 21.1677 51.9374 21.8797 50.8667 22.9405L27.2136 46.562H6.55366Z" fill="#9730FF"/>
</svg>
