<svg width="53" height="53" viewBox="0 0 53 53" fill="none" xmlns="http://www.w3.org/2000/svg">
<path d="M17.4229 26.2736L21.698 21.9985C22.2776 21.4188 22.5675 20.7426 22.5675 19.9697C22.5675 19.1968 22.2776 18.5205 21.698 17.9408C21.1183 17.3612 20.4294 17.0713 19.6314 17.0713C18.8334 17.0713 18.1455 17.3612 17.5678 17.9408L11.2639 24.2447C10.9741 24.5346 10.7683 24.8486 10.6466 25.1867C10.5248 25.5248 10.4649 25.8871 10.4669 26.2736C10.4669 26.66 10.5268 27.0223 10.6466 27.3605C10.7664 27.6986 10.9721 28.0126 11.2639 28.3024L17.5678 34.6063C18.1475 35.186 18.8363 35.4758 19.6343 35.4758C20.4323 35.4758 21.1202 35.186 21.698 34.6063C22.2776 34.0266 22.5675 33.3504 22.5675 32.5775C22.5675 31.8046 22.2776 31.1283 21.698 30.5486L17.4229 26.2736ZM35.8274 26.2736L31.5523 30.5486C30.9727 31.1283 30.6828 31.8046 30.6828 32.5775C30.6828 33.3504 30.9727 34.0266 31.5523 34.6063C32.132 35.186 32.8208 35.4758 33.6188 35.4758C34.4169 35.4758 35.1047 35.186 35.6825 34.6063L41.9864 28.3024C42.2762 28.0126 42.482 27.6986 42.6037 27.3605C42.7254 27.0223 42.7853 26.66 42.7834 26.2736C42.7834 25.8871 42.7225 25.5248 42.6008 25.1867C42.4791 24.8486 42.2743 24.5346 41.9864 24.2447L35.6825 17.9408C35.3926 17.651 35.0661 17.4336 34.7028 17.2887C34.3396 17.1438 33.9773 17.0713 33.6159 17.0713C33.2546 17.0713 32.8923 17.1438 32.5291 17.2887C32.1658 17.4336 31.8402 17.651 31.5523 17.9408C30.9727 18.5205 30.6828 19.1968 30.6828 19.9697C30.6828 20.7426 30.9727 21.4188 31.5523 21.9985L35.8274 26.2736ZM6.33673 52.3587C4.74264 52.3587 3.37752 51.7906 2.24137 50.6544C1.10522 49.5183 0.538112 48.1541 0.540044 46.562V5.98517C0.540044 4.39108 1.10812 3.02596 2.24427 1.88981C3.38042 0.753658 4.74457 0.186549 6.33673 0.188481H46.9135C48.5076 0.188481 49.8728 0.756557 51.0089 1.89271C52.1451 3.02886 52.7122 4.39301 52.7102 5.98517V46.562C52.7102 48.1561 52.1422 49.5212 51.006 50.6573C49.8699 51.7935 48.5057 52.3606 46.9135 52.3587H6.33673Z" fill="#9730FF"/>
</svg>
