<svg width="22" height="22" viewBox="0 0 22 22" fill="none" xmlns="http://www.w3.org/2000/svg">
<path d="M10.0303 21C9.02122 21 8.17018 20.2483 8.04563 19.2469L7.94968 18.4754C7.89795 18.0595 7.61343 17.7184 7.25572 17.5V17.5V17.5C6.89923 17.2823 6.46087 17.2245 6.07607 17.387L5.36491 17.6873C4.43481 18.08 3.35784 17.718 2.85388 16.8432L1.87816 15.1494C1.37603 14.2777 1.59945 13.1688 2.39993 12.5596L3.29227 11.8804C3.45893 11.7536 3.53731 11.5464 3.53731 11.337V11.337V10.663V10.663C3.53731 10.4536 3.45893 10.2464 3.29227 10.1196L2.39993 9.44044C1.59945 8.83122 1.37603 7.72225 1.87816 6.8506L2.85388 5.15684C3.35784 4.282 4.43481 3.91995 5.36491 4.3127L6.06605 4.60877C6.45717 4.77393 6.9024 4.71472 7.26866 4.5V4.5V4.5C7.62542 4.29085 7.89716 3.94685 7.9482 3.53646L8.04563 2.75315C8.17018 1.75175 9.02122 1 10.0303 1H11.9697C12.9788 1 13.8298 1.75175 13.9544 2.75315L14.0503 3.52456C14.1021 3.94048 14.3866 4.28156 14.7443 4.5V4.5V4.5C15.1008 4.7177 15.5391 4.77549 15.9239 4.613L16.6351 4.3127C17.5652 3.91995 18.6422 4.282 19.1461 5.15684L20.1218 6.8506C20.624 7.72225 20.4006 8.83122 19.6001 9.44044L18.7077 10.1196C18.5411 10.2464 18.4627 10.4536 18.4627 10.663V10.663V11.337V11.337C18.4627 11.5437 18.5212 11.7574 18.6857 11.8826L19.5752 12.5596C20.3757 13.1688 20.5991 14.2777 20.097 15.1494L19.1239 16.8385C18.6188 17.7153 17.5384 18.0767 16.6073 17.6802L15.9331 17.3931C15.5427 17.2269 15.0974 17.2854 14.7313 17.5V17.5V17.5C14.3746 17.7092 14.1028 18.0531 14.0518 18.4635L13.9544 19.2469C13.8298 20.2483 12.9788 21 11.9697 21H10.0303ZM11.0498 14.5C12.0116 14.5 12.8325 14.1583 13.5124 13.475C14.1924 12.7917 14.5323 11.9667 14.5323 11C14.5323 10.0333 14.1924 9.20833 13.5124 8.525C12.8325 7.84167 12.0116 7.5 11.0498 7.5C10.0713 7.5 9.2461 7.84167 8.57413 8.525C7.90216 9.20833 7.5665 10.0333 7.56717 11C7.56717 11.9667 7.90282 12.7917 8.57413 13.475C9.24544 14.1583 10.0706 14.5 11.0498 14.5Z" stroke="#9730FF" stroke-width="1.5"/>
</svg>
