<svg width="54" height="55" viewBox="0 0 54 55" fill="none" xmlns="http://www.w3.org/2000/svg">
<path d="M45.7255 20.0508L34.1852 8.32652L38.0546 4.39543C39.0955 3.33794 40.3744 2.8092 41.8914 2.8092C43.4084 2.8092 44.6865 3.33794 45.7255 4.39543L49.5949 8.32652C50.6358 9.384 51.1563 10.6833 51.1563 12.2245C51.1563 13.7657 50.6358 15.0641 49.5949 16.1197L45.7255 20.0508ZM2.68693 52.0512V40.327L14.9061 27.913L0.58252 13.2231L13.4126 0.188477L27.8041 14.8783L30.3837 12.2576L41.924 23.9129L39.3444 26.5337L53.668 41.2235L40.9058 54.1892L26.4464 39.5683L14.2273 52.0512H2.68693ZM18.7755 23.9819L23.9347 18.7405L20.6763 15.4301L17.4178 18.6715L13.6163 14.8094L16.8069 11.499L13.3448 8.05065L8.25344 13.2921L18.7755 23.9819ZM40.8379 46.396L45.9971 41.1545L42.535 37.7062L39.3444 40.9477L35.475 37.0855L38.7335 33.7751L35.4071 30.4648L30.2479 35.7062L40.8379 46.396Z" fill="#9730FF"/>
</svg>
