<svg width="27" height="28" viewBox="0 0 27 28" fill="none" xmlns="http://www.w3.org/2000/svg">
<path d="M24.9 27.5L15.45 18.05C14.7 18.65 13.8375 19.125 12.8625 19.475C11.8875 19.825 10.85 20 9.75 20C7.025 20 4.719 19.056 2.832 17.168C0.945 15.28 0.001 12.974 0 10.25C0 7.525 0.944 5.219 2.832 3.332C4.72 1.445 7.026 0.501 9.75 0.5C12.475 0.5 14.781 1.444 16.668 3.332C18.555 5.22 19.499 7.526 19.5 10.25C19.5 11.35 19.325 12.3875 18.975 13.3625C18.625 14.3375 18.15 15.2 17.55 15.95L27 25.4L24.9 27.5ZM9.75 17C11.625 17 13.219 16.3435 14.532 15.0305C15.845 13.7175 16.501 12.124 16.5 10.25C16.5 8.375 15.8435 6.781 14.5305 5.468C13.2175 4.155 11.624 3.499 9.75 3.5C7.875 3.5 6.281 4.1565 4.968 5.4695C3.655 6.7825 2.999 8.376 3 10.25C3 12.125 3.6565 13.719 4.9695 15.032C6.2825 16.345 7.876 17.001 9.75 17Z" fill="#9730FF"/>
</svg>
